<svg width="50" height="50" viewBox="0 0 50 50" fill="none" xmlns="http://www.w3.org/2000/svg">
<path d="M34.6154 21.1538C34.6154 13.732 28.5757 7.69231 21.1538 7.69231C13.732 7.69231 7.69231 13.732 7.69231 21.1538C7.69231 28.5757 13.732 34.6154 21.1538 34.6154C28.5757 34.6154 34.6154 28.5757 34.6154 21.1538ZM50 46.1538C50 48.2572 48.2572 50 46.1538 50C45.1322 50 44.1406 49.5793 43.4495 48.8582L33.143 38.5817C29.6274 41.0156 25.4207 42.3077 21.1538 42.3077C9.46514 42.3077 0 32.8425 0 21.1538C0 9.46514 9.46514 0 21.1538 0C32.8425 0 42.3077 9.46514 42.3077 21.1538C42.3077 25.4207 41.0156 29.6274 38.5817 33.143L48.8882 43.4495C49.5793 44.1406 50 45.1322 50 46.1538Z" fill="#989898"/>
</svg>
